<svg width="25" height="24" viewBox="0 0 25 24" fill="none" xmlns="http://www.w3.org/2000/svg">
<path opacity="0.35" fill-rule="evenodd" clip-rule="evenodd" d="M12.5 21C17.4706 21 21.5 16.9706 21.5 12C21.5 7.02944 17.4706 3 12.5 3C7.52944 3 3.5 7.02944 3.5 12C3.5 16.9706 7.52944 21 12.5 21ZM12.5 24C19.1274 24 24.5 18.6274 24.5 12C24.5 5.37258 19.1274 0 12.5 0C5.87258 0 0.5 5.37258 0.5 12C0.5 18.6274 5.87258 24 12.5 24Z" fill="white"/>
<mask id="path-2-inside-1_38_245" fill="white">
<path d="M2.22477 5.80163C3.66432 3.41525 5.88961 1.60433 8.51872 0.679691C11.1478 -0.244949 14.0168 -0.22565 16.6332 0.734276L15.6089 3.52622C13.6409 2.80419 11.4829 2.78968 9.50539 3.48517C7.52784 4.18065 5.85404 5.54278 4.77125 7.33775L2.22477 5.80163Z"/>
</mask>
<path d="M2.22477 5.80163C3.66432 3.41525 5.88961 1.60433 8.51872 0.679691C11.1478 -0.244949 14.0168 -0.22565 16.6332 0.734276L15.6089 3.52622C13.6409 2.80419 11.4829 2.78968 9.50539 3.48517C7.52784 4.18065 5.85404 5.54278 4.77125 7.33775L2.22477 5.80163Z" stroke="white" stroke-width="12" mask="url(#path-2-inside-1_38_245)"/>
</svg>
