<svg width="114" height="48" viewBox="0 0 114 48" fill="none" xmlns="http://www.w3.org/2000/svg">
    <path d="M8.78225 18.383V17.8331L9.55307 17.6236C9.88976 17.5363 10.1201 17.3704 10.2442 17.126C10.3859 16.8816 10.4568 16.5848 10.4568 16.2357V3.56137C10.2973 3.22968 10.1556 2.98527 10.0315 2.82815C9.9252 2.65357 9.81002 2.50518 9.68598 2.38298C9.56193 2.26077 9.39359 2.12111 9.18095 1.96399L8.70251 1.62357V1.07365H13.2477L22.0723 12.9624V3.24714C22.0723 2.89798 22.0103 2.59247 21.8863 2.33061C21.7799 2.06874 21.5496 1.89416 21.1952 1.80687L20.3978 1.62357V1.07365H24.3582V1.62357L23.6937 1.80687C23.357 1.91162 23.1444 2.09493 23.0558 2.35679C22.9849 2.6012 22.9495 2.89798 22.9495 3.24714V18.4877H21.461L11.3339 4.76596V16.2095C11.3339 16.5761 11.3871 16.8816 11.4934 17.126C11.5997 17.3704 11.8212 17.5363 12.1579 17.6236L12.8756 17.8331V18.383H8.78225Z" fill="#317067"/>
    <path d="M31.6937 18.7496C30.3824 18.7496 29.2306 18.479 28.2383 17.9378C27.2637 17.3966 26.5017 16.6285 25.9524 15.6334C25.4208 14.6383 25.155 13.4512 25.155 12.072C25.155 10.6929 25.4385 9.50573 26.0056 8.51064C26.5903 7.51555 27.37 6.75614 28.3446 6.23241C29.3369 5.69122 30.4533 5.42062 31.6937 5.42062C32.9341 5.42062 34.0416 5.69122 35.0162 6.23241C36.0086 6.75614 36.7882 7.51555 37.3553 8.51064C37.9401 9.48827 38.2324 10.6754 38.2324 12.072C38.2324 13.4512 37.9578 14.647 37.4085 15.6596C36.8769 16.6547 36.1237 17.4228 35.1491 17.964C34.1745 18.4877 33.0227 18.7496 31.6937 18.7496ZM31.6937 18.0164C32.3316 18.0164 32.8455 17.8505 33.2354 17.5188C33.6429 17.1697 33.9353 16.5674 34.1125 15.7119C34.2897 14.8565 34.3783 13.6607 34.3783 12.1244C34.3783 10.5707 34.2897 9.36607 34.1125 8.51064C33.9353 7.63775 33.6429 7.03546 33.2354 6.70376C32.8455 6.35461 32.3316 6.18003 31.6937 6.18003C31.0558 6.18003 30.5419 6.35461 30.1521 6.70376C29.7622 7.03546 29.4698 7.63775 29.2749 8.51064C29.0977 9.36607 29.0091 10.5707 29.0091 12.1244C29.0091 13.6607 29.0977 14.8565 29.2749 15.7119C29.4698 16.5674 29.7622 17.1697 30.1521 17.5188C30.5419 17.8505 31.0558 18.0164 31.6937 18.0164Z" fill="#317067"/>
    <path d="M48.5985 18.8282C46.8796 18.8282 45.3291 18.479 43.947 17.7807C42.5648 17.0824 41.4661 16.0524 40.651 14.6907C39.8536 13.329 39.4549 11.6705 39.4549 9.71522C39.4549 8.24877 39.6941 6.94817 40.1726 5.81342C40.6687 4.67867 41.3421 3.72722 42.1927 2.95908C43.061 2.17349 44.0533 1.58865 45.1697 1.20458C46.286 0.803055 47.4733 0.602291 48.7314 0.602291C49.706 0.602291 50.6186 0.715767 51.4692 0.942717C52.3197 1.15221 53.1348 1.46645 53.9145 1.88543L54.0208 5.31588H53.3032L52.1868 3.24714C52.0096 2.89798 51.8147 2.58374 51.602 2.30442C51.4071 2.02509 51.1502 1.82433 50.8312 1.70213C50.3882 1.49263 49.8655 1.38789 49.263 1.38789C48.2175 1.38789 47.2606 1.64975 46.3923 2.17349C45.5418 2.69722 44.8596 3.5701 44.3457 4.79214C43.8318 5.99673 43.5748 7.64648 43.5748 9.74141C43.5748 11.8189 43.8141 13.4686 44.2925 14.6907C44.7887 15.9127 45.4532 16.7856 46.286 17.3093C47.1189 17.8156 48.058 18.0687 49.1035 18.0687C49.582 18.0687 49.9718 18.0338 50.273 17.964C50.5743 17.8942 50.8755 17.7981 51.1768 17.6759C51.5312 17.5363 51.8058 17.3355 52.0008 17.0737C52.1957 16.7943 52.364 16.4801 52.5058 16.1309L53.5158 13.748H54.2335L54.1272 17.5188C53.3652 17.9378 52.5235 18.2608 51.602 18.4877C50.6806 18.7147 49.6794 18.8282 48.5985 18.8282Z" fill="#317067"/>
    <path d="M59.3246 18.7496C58.3146 18.7496 57.4552 18.4703 56.7463 17.9116C56.0553 17.3355 55.7097 16.515 55.7097 15.4501C55.7097 14.6121 56.1173 13.844 56.9324 13.1457C57.7653 12.4299 59.0677 11.9062 60.8397 11.5745C61.1409 11.5046 61.4865 11.4435 61.8763 11.3912C62.2839 11.3213 62.6826 11.2515 63.0724 11.1817V9.32242C63.0724 8.1353 62.9218 7.31478 62.6206 6.86088C62.3193 6.40698 61.8409 6.18003 61.1852 6.18003H61.1055C60.6979 6.18003 60.3701 6.31097 60.122 6.57283C59.8917 6.81724 59.741 7.2275 59.6702 7.8036L59.5904 8.14403C59.5373 8.84234 59.3512 9.35734 59.0322 9.68904C58.7133 10.0033 58.3146 10.1604 57.8361 10.1604C57.3931 10.1604 57.021 10.0295 56.7198 9.76759C56.4362 9.48827 56.2945 9.13039 56.2945 8.69394C56.2945 7.97818 56.5426 7.37589 57.0387 6.88707C57.5349 6.39825 58.1905 6.03164 59.0057 5.78723C59.8385 5.54283 60.7334 5.42062 61.6903 5.42062C63.2673 5.42062 64.4723 5.79596 65.3052 6.54665C66.138 7.29733 66.5544 8.51937 66.5544 10.2128V16.0524C66.5544 16.8031 66.9177 17.1784 67.6442 17.1784H68.2556L68.5214 17.4664C68.2024 17.868 67.848 18.1735 67.4582 18.383C67.0683 18.6099 66.5367 18.7234 65.8633 18.7234C65.1014 18.7234 64.49 18.5488 64.0293 18.1997C63.5863 17.8331 63.2939 17.353 63.1522 16.7594C62.5851 17.353 62.0269 17.8331 61.4776 18.1997C60.9283 18.5663 60.2106 18.7496 59.3246 18.7496ZM60.8663 17.0737C61.2207 17.0737 61.5574 16.9951 61.8763 16.838C62.1953 16.6809 62.594 16.419 63.0724 16.0524V11.8625C62.6117 11.9324 62.1421 12.0196 61.6637 12.1244C60.9017 12.299 60.2815 12.6219 59.8031 13.0933C59.3423 13.5646 59.112 14.2019 59.112 15.0049C59.112 15.7032 59.2715 16.227 59.5904 16.5761C59.9271 16.9078 60.3524 17.0737 60.8663 17.0737Z" fill="#317067"/>
    <path d="M69.0461 18.383V17.8854L69.4448 17.7545C69.7992 17.6672 70.0384 17.5188 70.1625 17.3093C70.3042 17.0998 70.3751 16.8205 70.3751 16.4714V8.79869C70.3574 8.41462 70.2865 8.12657 70.1625 7.93453C70.0384 7.72504 69.7992 7.58538 69.4448 7.51555L69.0461 7.4108V6.93944L73.3787 5.42062L73.6976 5.70867L73.9369 8.01309V8.1964C74.2027 7.70758 74.5393 7.25368 74.9469 6.8347C75.3545 6.41571 75.7975 6.07529 76.2759 5.81342C76.7543 5.55155 77.2328 5.42062 77.7112 5.42062C78.3846 5.42062 78.8896 5.5952 79.2263 5.94435C79.563 6.29351 79.7313 6.73868 79.7313 7.27987C79.7313 7.87343 79.563 8.32733 79.2263 8.64157C78.8896 8.93835 78.4821 9.08674 78.0036 9.08674C77.2948 9.08674 76.6835 8.7725 76.1696 8.14403L76.1164 8.09165C75.9392 7.88216 75.7354 7.76869 75.5051 7.75123C75.2924 7.71631 75.0798 7.82106 74.8672 8.06547C74.69 8.24004 74.5216 8.44954 74.3621 8.69394C74.2204 8.9209 74.0875 9.19149 73.9634 9.50573V16.3666C73.9634 16.6983 74.0343 16.9776 74.1761 17.2046C74.3178 17.4141 74.5571 17.5625 74.8937 17.6498L75.6911 17.8854V18.383H69.0461Z" fill="#317067"/>
    <path d="M84.4902 18.7234L80.1311 18.383V17.8854L80.3969 17.8331C81.088 17.6759 81.4335 17.2395 81.4335 16.5237V2.90671C81.4335 2.55756 81.3626 2.28696 81.2209 2.09493C81.0968 1.90289 80.8576 1.76323 80.5032 1.67594L80.1577 1.59738V1.12602L84.7029 0L85.0484 0.235679L84.9421 3.92799V6.67758C86.2002 5.83961 87.5558 5.42062 89.0088 5.42062C90.4973 5.42062 91.7289 5.96181 92.7035 7.04419C93.6781 8.10911 94.1654 9.75887 94.1654 11.9935C94.1654 13.4774 93.9173 14.7256 93.4212 15.7381C92.925 16.7332 92.2605 17.4839 91.4276 17.9902C90.5948 18.4965 89.6733 18.7496 88.6633 18.7496C87.9899 18.7496 87.3166 18.6623 86.6432 18.4877C85.9876 18.3132 85.4028 18.0426 84.8889 17.6759L84.4902 18.7234ZM87.414 17.5974C87.9988 17.5974 88.5127 17.4315 88.9557 17.0998C89.3987 16.7681 89.7442 16.2008 89.9923 15.3977C90.2404 14.5947 90.3644 13.4948 90.3644 12.0982C90.3644 10.7016 90.2493 9.61048 90.0189 8.82488C89.7885 8.03928 89.4518 7.48936 89.0088 7.17512C88.5836 6.86088 88.0697 6.70376 87.4672 6.70376C86.6698 6.70376 85.8547 6.93072 85.0218 7.38462V16.9427C85.7483 17.3792 86.5457 17.5974 87.414 17.5974Z" fill="#317067"/>
    <path d="M99.991 18.7496C99.1404 18.7496 98.3696 18.6536 97.6785 18.4615C97.0052 18.287 96.3584 18.0338 95.7382 17.7021V14.6121H96.4559L97.2533 16.1047C97.5899 16.7507 97.9709 17.2308 98.3962 17.545C98.8392 17.8592 99.3974 18.0164 100.071 18.0164C100.904 18.0164 101.568 17.8418 102.064 17.4926C102.56 17.126 102.809 16.6372 102.809 16.0262C102.809 15.4675 102.622 15.0136 102.25 14.6645C101.878 14.3153 101.214 13.9924 100.257 13.6956L99.0873 13.329C98.0418 13.0147 97.209 12.5434 96.5888 11.9149C95.9863 11.269 95.685 10.4659 95.685 9.50573C95.685 8.75505 95.8888 8.07419 96.2964 7.46318C96.7039 6.8347 97.2976 6.33715 98.0772 5.97054C98.8569 5.60393 99.805 5.42062 100.921 5.42062C101.648 5.42062 102.312 5.50791 102.915 5.68249C103.535 5.83961 104.138 6.06656 104.722 6.36334L104.563 9.1653H103.872L103.048 7.67267C102.764 7.11402 102.472 6.72995 102.171 6.52046C101.887 6.29351 101.444 6.18003 100.842 6.18003C100.204 6.18003 99.6366 6.34588 99.1404 6.67758C98.662 6.99182 98.4228 7.43699 98.4228 8.01309C98.4228 8.55428 98.6266 8.99946 99.0341 9.34861C99.4417 9.68031 100.097 9.99454 101.001 10.2913L102.144 10.6318C103.438 11.0333 104.359 11.5657 104.908 12.2291C105.458 12.8925 105.732 13.6869 105.732 14.6121C105.732 15.8516 105.227 16.8554 104.217 17.6236C103.225 18.3743 101.816 18.7496 99.991 18.7496Z" fill="#317067"/>
    <path d="M9.14357 42.3961C7.42472 42.3961 5.87421 42.0469 4.49205 41.3486C3.10988 40.6503 2.01123 39.6203 1.19611 38.2586C0.398702 36.8969 0 35.2384 0 33.2831C0 31.8167 0.239221 30.5161 0.717664 29.3813C1.21383 28.2466 1.88719 27.2951 2.73776 26.527C3.60604 25.7414 4.59837 25.1566 5.71473 24.7725C6.8311 24.371 8.01835 24.1702 9.27647 24.1702C10.2511 24.1702 11.1637 24.2837 12.0142 24.5106C12.8648 24.7201 13.6799 25.0344 14.4596 25.4534L14.5659 28.8838H13.8483L12.7319 26.8151C12.5547 26.4659 12.3598 26.1517 12.1471 25.8723C11.9522 25.593 11.6953 25.3923 11.3763 25.2701C10.9333 25.0606 10.4106 24.9558 9.80808 24.9558C8.76259 24.9558 7.80571 25.2177 6.93742 25.7414C6.08686 26.2651 5.40463 27.138 4.89075 28.3601C4.37687 29.5646 4.11992 31.2144 4.11992 33.3093C4.11992 35.3868 4.35915 37.0366 4.83759 38.2586C5.33375 39.4806 5.99826 40.3535 6.8311 40.8773C7.66394 41.3835 8.60311 41.6367 9.6486 41.6367C10.127 41.6367 10.5169 41.6017 10.8181 41.5319C11.1194 41.4621 11.4206 41.3661 11.7218 41.2439C12.0763 41.1042 12.3509 40.9034 12.5458 40.6416C12.7408 40.3623 12.9091 40.048 13.0509 39.6989L14.0609 37.3159H14.7786L14.6722 41.0867C13.9103 41.5057 13.0686 41.8287 12.1471 42.0556C11.2257 42.2826 10.2245 42.3961 9.14357 42.3961Z" fill="#00463C"/>
    <path d="M16.0687 41.9509V41.4272L16.4143 41.3224C17.0522 41.1304 17.3712 40.6939 17.3712 40.0131V26.527C17.3712 26.1604 17.3091 25.8898 17.1851 25.7152C17.0611 25.5232 16.8218 25.3835 16.4674 25.2962L16.0687 25.1915V24.6939L20.5608 23.5679L20.9861 23.8036L20.8797 27.4959V30.8478C21.5 30.3415 22.1733 29.9051 22.8998 29.5385C23.6441 29.1719 24.4415 28.9885 25.2921 28.9885C26.4616 28.9885 27.3742 29.3115 28.0298 29.9574C28.7032 30.6034 29.0399 31.5985 29.0399 32.9427V40.0393C29.0399 40.3884 29.1107 40.6678 29.2525 40.8773C29.3943 41.0867 29.6423 41.2439 29.9967 41.3486L30.236 41.4272V41.9509H24.1757V41.4272L24.4946 41.3224C25.1326 41.1479 25.4515 40.7114 25.4515 40.0131V32.4452C25.4515 31.7294 25.3275 31.2319 25.0794 30.9525C24.8313 30.6732 24.3972 30.5336 23.777 30.5336C23.3517 30.5336 22.8998 30.6121 22.4214 30.7692C21.9607 30.9264 21.4734 31.1882 20.9595 31.5548V40.0655C20.9595 40.4146 21.0304 40.6939 21.1721 40.9034C21.3139 41.1129 21.5531 41.2613 21.8898 41.3486L22.129 41.4272V41.9509H16.0687Z" fill="#00463C"/>
    <path d="M35.0287 42.3175C34.0187 42.3175 33.1592 42.0382 32.4504 41.4795C31.7593 40.9034 31.4138 40.0829 31.4138 39.018C31.4138 38.18 31.8214 37.4119 32.6365 36.7136C33.4693 35.9978 34.7718 35.4741 36.5438 35.1424C36.845 35.0726 37.1906 35.0115 37.5804 34.9591C37.988 34.8893 38.3867 34.8194 38.7765 34.7496V32.8903C38.7765 31.7032 38.6259 30.8827 38.3246 30.4288C38.0234 29.9749 37.545 29.748 36.8893 29.748H36.8096C36.402 29.748 36.0742 29.8789 35.8261 30.1408C35.5957 30.3852 35.4451 30.7954 35.3742 31.3715L35.2945 31.7119C35.2413 32.4103 35.0553 32.9253 34.7363 33.257C34.4174 33.5712 34.0187 33.7283 33.5402 33.7283C33.0972 33.7283 32.7251 33.5974 32.4238 33.3355C32.1403 33.0562 31.9986 32.6983 31.9986 32.2619C31.9986 31.5461 32.2466 30.9438 32.7428 30.455C33.239 29.9662 33.8946 29.5996 34.7097 29.3552C35.5426 29.1107 36.4374 28.9885 37.3943 28.9885C38.9714 28.9885 40.1764 29.3639 41.0092 30.1146C41.8421 30.8652 42.2585 32.0873 42.2585 33.7807V39.6203C42.2585 40.371 42.6218 40.7463 43.3483 40.7463H43.9596L44.2254 41.0344C43.9065 41.4359 43.5521 41.7414 43.1622 41.9509C42.7724 42.1779 42.2408 42.2913 41.5674 42.2913C40.8055 42.2913 40.1941 42.1167 39.7334 41.7676C39.2904 41.401 38.998 40.9209 38.8562 40.3273C38.2892 40.9209 37.731 41.401 37.1817 41.7676C36.6324 42.1342 35.9147 42.3175 35.0287 42.3175ZM36.5703 40.6416C36.9247 40.6416 37.2614 40.563 37.5804 40.4059C37.8994 40.2488 38.2981 39.9869 38.7765 39.6203V35.4304C38.3158 35.5003 37.8462 35.5876 37.3678 35.6923C36.6058 35.8669 35.9856 36.1899 35.5071 36.6612C35.0464 37.1326 34.8161 37.7698 34.8161 38.5728C34.8161 39.2711 34.9755 39.7949 35.2945 40.144C35.6312 40.4757 36.0565 40.6416 36.5703 40.6416Z" fill="#00463C"/>
    <path d="M44.8812 41.9509V41.4534L45.2799 41.3486C45.8647 41.1566 46.1571 40.7201 46.1571 40.0393C46.1571 39.4457 46.1571 38.8522 46.1571 38.2586C46.1748 37.6476 46.1836 37.0453 46.1836 36.4517V26.5008C46.1836 26.1342 46.1216 25.8636 45.9976 25.689C45.8735 25.497 45.6343 25.3573 45.2799 25.2701L44.8812 25.1653V24.6678L49.5327 23.5679L49.8783 23.8036L49.772 27.4959V40.0393C49.7897 40.3884 49.8606 40.6765 49.9846 40.9034C50.1264 41.1129 50.3656 41.2613 50.7023 41.3486L51.0744 41.4534V41.9509H44.8812Z" fill="#00463C"/>
    <path d="M52.3309 41.9509V41.4534L52.7296 41.3486C53.3144 41.1566 53.6068 40.7201 53.6068 40.0393C53.6068 39.4457 53.6068 38.8522 53.6068 38.2586C53.6245 37.6476 53.6334 37.0453 53.6334 36.4517V26.5008C53.6334 26.1342 53.5713 25.8636 53.4473 25.689C53.3233 25.497 53.084 25.3573 52.7296 25.2701L52.3309 25.1653V24.6678L56.9825 23.5679L57.328 23.8036L57.2217 27.4959V40.0393C57.2394 40.3884 57.3103 40.6765 57.4343 40.9034C57.5761 41.1129 57.8153 41.2613 58.152 41.3486L58.5241 41.4534V41.9509H52.3309Z" fill="#00463C"/>
    <path d="M66.3725 28.9885C67.4889 28.9885 68.4458 29.2155 69.2432 29.6694C70.0406 30.1233 70.6519 30.7518 71.0772 31.5548C71.5202 32.3404 71.7417 33.2482 71.7417 34.2782C71.7417 34.5052 71.7328 34.7234 71.7151 34.9329C71.6974 35.1249 71.662 35.3082 71.6088 35.4828H63.6082C63.6259 37.281 63.9626 38.5728 64.6182 39.3584C65.2916 40.144 66.2662 40.5368 67.542 40.5368C68.428 40.5368 69.1457 40.3972 69.695 40.1178C70.2444 39.8211 70.7494 39.4108 71.2101 38.8871L71.6354 39.2799C71.1038 40.24 70.3773 40.9907 69.4558 41.5319C68.5521 42.0556 67.4712 42.3175 66.213 42.3175C64.9549 42.3175 63.8474 42.0556 62.8905 41.5319C61.9336 41.0082 61.1805 40.2575 60.6312 39.2799C60.0996 38.2848 59.8338 37.0977 59.8338 35.7185C59.8338 34.287 60.1439 33.0737 60.7641 32.0786C61.402 31.0835 62.2172 30.3241 63.2095 29.8003C64.2195 29.2591 65.2739 28.9885 66.3725 28.9885ZM66.2396 29.748C65.7257 29.748 65.2739 29.8963 64.884 30.1931C64.5119 30.4725 64.2107 30.9787 63.9803 31.7119C63.7677 32.4277 63.6436 33.4403 63.6082 34.7496H68.366C68.561 32.9864 68.4901 31.7119 68.1534 30.9263C67.8167 30.1408 67.1788 29.748 66.2396 29.748Z" fill="#00463C"/>
    <path d="M73.0954 41.9509V41.4534L73.5207 41.3486C74.1055 41.174 74.3979 40.7463 74.3979 40.0655V32.3404C74.3801 31.9738 74.3181 31.6945 74.2118 31.5025C74.1055 31.293 73.8751 31.1533 73.5207 31.0835L73.0954 30.9787V30.5074L77.4014 28.9885L77.7204 29.2766L77.9064 30.9002C78.5444 30.3415 79.2532 29.8876 80.0328 29.5385C80.8303 29.1719 81.6099 28.9885 82.3719 28.9885C83.5414 28.9885 84.4363 29.3028 85.0565 29.9313C85.6944 30.5597 86.0134 31.5199 86.0134 32.8118V40.0917C86.0134 40.7725 86.3323 41.2002 86.9703 41.3748L87.2627 41.4534V41.9509H81.1492V41.4534L81.5479 41.3486C82.1327 41.1566 82.4251 40.7289 82.4251 40.0655V32.2881C82.4251 31.677 82.2922 31.2319 82.0264 30.9525C81.7606 30.6732 81.3176 30.5336 80.6973 30.5336C79.8291 30.5336 78.9253 30.9089 77.9862 31.6596V40.0917C77.9862 40.7725 78.2963 41.2002 78.9165 41.3748L79.1823 41.4534V41.9509H73.0954Z" fill="#00463C"/>
    <path d="M94.0996 37.473C92.93 37.473 91.9288 37.281 91.096 36.8969V37.8396C91.096 38.3633 91.3618 38.6776 91.8934 38.7823L96.6247 39.6465C97.5284 39.8211 98.3258 40.0393 99.0169 40.3011C99.708 40.5456 100.248 40.9034 100.638 41.3748C101.028 41.8287 101.223 42.4484 101.223 43.234C101.223 44.072 100.94 44.8489 100.372 45.5646C99.8232 46.2979 98.9992 46.8827 97.9005 47.3191C96.8196 47.7731 95.464 48 93.8338 48C92.4339 48 91.3175 47.8516 90.4847 47.5548C89.6695 47.2755 89.0848 46.9089 88.7304 46.455C88.376 46.0011 88.1988 45.5123 88.1988 44.9885C88.1988 44.3601 88.4114 43.7316 88.8367 43.1031C89.2797 42.4746 89.8467 41.9509 90.5378 41.5319C89.4569 41.1304 88.9164 40.4932 88.9164 39.6203C88.9164 39.2886 88.9962 38.9831 89.1557 38.7038C89.3151 38.4244 89.5101 38.1451 89.7404 37.8658L90.6973 36.6874C89.4215 35.9542 88.7835 34.8107 88.7835 33.257C88.7835 31.9825 89.2354 30.9525 90.1391 30.1669C91.0606 29.3813 92.3807 28.9885 94.0996 28.9885C95.8184 28.9885 97.1474 29.3813 98.0866 30.1669C98.6536 30.0797 99.1852 29.94 99.6814 29.748C100.178 29.5559 100.638 29.2941 101.064 28.9624L101.436 29.2242V30.6907H98.565C99.1321 31.389 99.4156 32.2444 99.4156 33.257C99.4156 34.4965 98.9549 35.509 98.0334 36.2946C97.1297 37.0802 95.8184 37.473 94.0996 37.473ZM94.0464 36.766C94.7906 36.766 95.3311 36.4866 95.6678 35.928C96.0222 35.3519 96.1994 34.4354 96.1994 33.1784C96.1994 31.9389 96.0311 31.0486 95.6944 30.5074C95.3577 29.9662 94.8349 29.6956 94.1261 29.6956C93.4173 29.6956 92.8857 29.9749 92.5313 30.5336C92.1946 31.0747 92.0263 31.9738 92.0263 33.2308C92.0263 34.4877 92.1858 35.3955 92.5048 35.9542C92.8237 36.4954 93.3376 36.766 94.0464 36.766ZM90.272 44.2291C90.272 45.1893 90.5821 45.9051 91.2023 46.3764C91.8225 46.8653 92.806 47.1097 94.1527 47.1097C95.6412 47.1097 96.7399 46.8653 97.4487 46.3764C98.1752 45.9051 98.5385 45.2766 98.5385 44.491C98.5385 44.0022 98.3524 43.6181 97.9803 43.3388C97.6259 43.0595 97.0234 42.8412 96.1728 42.6841L91.415 41.7676C91.3441 41.7501 91.2732 41.7327 91.2023 41.7152C90.9365 42.0644 90.715 42.4659 90.5378 42.9198C90.3606 43.3737 90.272 43.8101 90.272 44.2291Z" fill="#00463C"/>
    <path d="M108.631 28.9885C109.747 28.9885 110.704 29.2155 111.501 29.6694C112.299 30.1233 112.91 30.7518 113.335 31.5548C113.779 32.3404 114 33.2482 114 34.2782C114 34.5052 113.991 34.7234 113.973 34.9329C113.956 35.1249 113.92 35.3082 113.867 35.4828H105.866C105.884 37.281 106.221 38.5728 106.877 39.3584C107.55 40.144 108.524 40.5368 109.8 40.5368C110.686 40.5368 111.404 40.3972 111.953 40.1178C112.503 39.8211 113.008 39.4108 113.468 38.8871L113.894 39.2799C113.362 40.24 112.636 40.9907 111.714 41.5319C110.81 42.0556 109.729 42.3175 108.471 42.3175C107.213 42.3175 106.106 42.0556 105.149 41.5319C104.192 41.0082 103.439 40.2575 102.889 39.2799C102.358 38.2848 102.092 37.0977 102.092 35.7185C102.092 34.287 102.402 33.0737 103.022 32.0786C103.66 31.0835 104.475 30.3241 105.468 29.8003C106.478 29.2591 107.532 28.9885 108.631 28.9885ZM108.498 29.748C107.984 29.748 107.532 29.8963 107.142 30.1931C106.77 30.4725 106.469 30.9787 106.239 31.7119C106.026 32.4277 105.902 33.4403 105.866 34.7496H110.624C110.819 32.9864 110.748 31.7119 110.412 30.9263C110.075 30.1408 109.437 29.748 108.498 29.748Z" fill="#00463C"/>
</svg>
